# Blender v2.79 (sub 0) OBJ File: ''
# www.blender.org
mtllib rock.mtl
o Plane
v -6.083834 -0.000000 6.083834
v 6.083834 -0.000000 6.083834
v 6.083834 0.000000 -6.083834
v -6.083834 0.000000 -6.083834
vt 0.000000 0.000000
vt 1.000000 0.000000
vt 1.000000 1.000000
vt 0.000000 1.000000
vn 0.0000 1.0000 0.0000
usemtl Material.001
s off
f 1/1/1 2/2/1 3/3/1 4/4/1
o Cube.001
v -0.630920 -0.226328 0.592326
v -0.537873 -0.057997 1.154378
v -1.052088 -0.064600 0.954513
v -1.155731 -0.217847 0.459469
v -0.677921 1.329703 0.698183
v -1.176430 1.281231 0.646380
v -1.019775 1.174950 1.105961
v -0.610285 1.147948 1.327881
v 1.115930 1.067893 0.980967
v 0.808457 1.346412 0.902078
v 0.444005 1.032712 1.513821
v 0.936321 0.677546 1.426494
v -0.944509 0.743625 1.392342
v -1.281588 0.883991 1.218077
v -1.719440 0.916506 -0.699776
v -1.356023 1.245036 -0.716849
v -0.681862 1.180458 -1.481573
v -0.974527 0.926074 -1.431442
v -0.751048 0.149059 -1.123006
v -0.321458 -0.060305 -0.702046
v -0.692441 -0.114299 -0.835835
v -1.063276 0.074521 -1.015607
v -0.359688 -0.219676 -0.596748
v -0.476225 -0.274043 -0.037390
v -1.094633 -0.254018 -0.118459
v -0.862364 -0.219203 -0.537108
v 0.548058 -0.284113 -0.657622
v 0.480423 -0.312115 -0.111060
v -0.015789 -0.312706 -0.060242
v 0.172793 -0.188473 -0.532460
v 0.383454 -0.298149 0.533170
v 0.243586 -0.141476 1.191072
v -0.154563 -0.114500 1.228987
v -0.106274 -0.274351 0.595963
v 0.342781 1.370886 0.863692
v -0.198010 1.360380 0.630818
v -0.344848 1.152380 1.730000
v -0.065279 1.102928 1.796044
v 0.801564 1.333314 -0.716665
v 0.062998 1.276304 -0.994314
v 0.046107 1.351565 -0.253730
v 0.611501 1.352344 -0.290780
v -0.544178 1.290048 -0.889409
v -1.177093 1.303243 0.009798
v -0.603343 1.343584 -0.011276
v 1.347667 0.189763 0.746821
v 1.267461 0.630730 1.008356
v 1.155268 0.478039 1.381585
v 1.014587 0.183491 1.312948
v 1.323792 0.127379 -0.856060
v 1.267107 0.600208 -0.689727
v 1.175182 0.692469 0.169032
v 1.268899 0.241091 -0.063884
v 1.423543 0.897206 -0.707035
v 1.231954 1.216866 -0.594471
v 0.975431 1.246559 0.047895
v 1.050912 1.068503 0.197512
v -0.706694 0.190636 1.346937
v -1.043570 0.402928 1.289593
v -1.648060 0.452009 0.853586
v -1.571341 0.110279 0.770709
v 0.494274 0.153436 1.399456
v 0.667029 0.439932 1.448684
v 0.260077 0.452640 1.365451
v -0.135120 0.156677 1.505020
v 0.524189 0.691410 1.410453
v -0.066870 0.652060 1.602193
v -1.346437 -0.078697 -0.808084
v -1.759897 0.319614 -0.724614
v -1.185727 0.481559 -1.133555
v -1.550380 0.033513 0.487642
v -1.646483 0.462612 0.459024
v -1.648881 0.429819 -0.064031
v -1.548443 -0.153801 -0.255587
v -1.434319 1.017100 0.746778
v -1.483055 1.068517 0.045330
v -0.263198 0.916780 -1.716774
v -0.775458 0.497559 -1.402503
v 0.802037 0.850318 -1.528586
v 0.556317 0.449266 -1.496503
v -0.199824 0.336820 -1.536424
v 0.153226 0.839249 -1.832230
v 0.512712 0.114694 -1.198383
v 0.468949 -0.142859 -1.026806
v 0.067265 -0.072713 -0.783522
v -0.180515 0.060946 -1.233899
v 0.896930 -0.116701 -1.078061
v 1.042022 -0.190494 -0.637866
v 1.045407 -0.157597 -0.147996
v 1.008866 -0.126459 0.470257
v 0.736314 -0.076033 1.066762
v 1.303753 1.083753 -1.023542
v 0.770454 1.122192 -1.299703
v 0.105258 1.126820 -1.585067
v -0.174992 1.147173 -1.801163
v 1.081272 0.175115 -1.287556
v 1.200361 0.538245 -1.221685
v 1.385825 0.807576 -1.181814
vt 0.137636 0.563411
vt 0.058285 0.569867
vt 0.082613 0.506661
vt 0.152906 0.498683
vt 0.155028 0.344089
vt 0.206316 0.378186
vt 0.155630 0.402329
vt 0.099783 0.387655
vt 0.896175 0.282885
vt 0.854473 0.349296
vt 0.794976 0.248970
vt 0.870663 0.174892
vt 0.949240 0.587705
vt 0.944083 0.694636
vt 0.905653 0.682602
vt 0.916733 0.604517
vt 0.336809 0.082005
vt 0.369246 0.000842
vt 0.489191 0.000000
vt 0.460672 0.063535
vt 0.485748 0.254952
vt 0.512673 0.310590
vt 0.481603 0.323059
vt 0.447322 0.276247
vt 0.276846 0.583529
vt 0.215363 0.578539
vt 0.223692 0.502410
vt 0.270084 0.523882
vt 0.288525 0.695621
vt 0.226456 0.694739
vt 0.220811 0.635843
vt 0.266533 0.646047
vt 0.149628 0.688747
vt 0.060049 0.668982
vt 0.053708 0.620010
vt 0.140662 0.629249
vt 0.046020 0.277128
vt 0.115533 0.299946
vt 0.042023 0.402498
vt 0.011393 0.383384
vt 0.133867 0.094672
vt 0.226136 0.127633
vt 0.165692 0.199396
vt 0.116225 0.149680
vt 0.273683 0.187557
vt 0.335575 0.267841
vt 0.258354 0.321530
vt 0.206193 0.274302
vt 0.422948 0.654063
vt 0.520455 0.684734
vt 0.477461 0.726331
vt 0.404599 0.713241
vt 0.422729 0.459207
vt 0.529375 0.479105
vt 0.539575 0.580737
vt 0.439840 0.553878
vt 0.744126 0.814485
vt 0.672331 0.787452
vt 0.683844 0.711964
vt 0.731678 0.707183
vt 0.016271 0.536299
vt 0.006598 0.482318
vt 0.054401 0.402498
vt 0.090851 0.431859
vt 0.857058 0.070133
vt 0.855242 0.125920
vt 0.818683 0.137473
vt 0.786060 0.070157
vt 0.829103 0.182611
vt 0.720806 0.251159
vt 0.693981 0.268226
vt 0.758736 0.168010
vt 0.408067 0.318081
vt 0.348488 0.225548
vt 0.431026 0.176751
vt 0.834672 0.401576
vt 0.821728 0.494375
vt 0.758928 0.488146
vt 0.747834 0.361119
vt 0.853441 0.628842
vt 0.844101 0.700647
vt 0.766741 0.707183
vt 0.766456 0.640000
vt 0.554998 0.057463
vt 0.491069 0.166304
vt 0.661203 0.071636
vt 0.642437 0.169965
vt 0.565426 0.199969
vt 0.608937 0.072162
vt 0.628288 0.255903
vt 0.619708 0.321108
vt 0.560004 0.310321
vt 0.556413 0.271543
vt 0.934356 0.187628
vt 0.907061 0.133559
vt 0.622627 0.581780
vt 0.617335 0.678426
vt 0.662917 0.562066
vt 0.672331 0.661064
vt 0.939564 0.506329
vt 0.869574 0.490922
vt 0.791582 0.866218
vt 0.744126 0.821215
vt 0.752056 0.707183
vt 0.791426 0.711743
vt 1.000000 0.606532
vt 0.999879 0.706758
vt 0.672331 0.596657
vt 0.677773 0.459778
vt 0.674914 0.687648
vt 0.387737 0.801509
vt 0.336809 0.833560
vt 0.336920 0.785916
vt 0.384519 0.726331
vt 0.506205 0.350977
vt 0.448079 0.354288
vt 0.559475 0.342029
vt 0.609960 0.361119
vt 0.324683 0.722893
vt 0.278588 0.749240
vt 0.320949 0.673747
vt 0.218381 0.752553
vt 0.143231 0.752483
vt 0.069266 0.722735
vt 0.808347 0.361119
vt 0.056221 0.145884
vt 0.000000 0.241327
vt 0.085645 0.065345
vt 0.116277 0.014773
vt 0.187902 0.035191
vt 0.273048 0.064123
vt 0.316518 0.068429
vt 0.336809 0.140426
vt 0.340137 0.610197
vt 0.336809 0.674909
vt 0.339988 0.536299
vt 0.336833 0.476818
vt 0.353162 0.419686
vt 0.429528 0.400325
vt 0.517650 0.412671
vt 0.604166 0.482239
vt 0.586459 0.423461
vt 0.646477 0.441109
vt 0.670954 0.491413
vt 0.000000 0.608449
vt 0.694133 0.143704
vt 0.736508 0.092307
vt 0.012308 0.682984
vt 0.019832 0.742597
vt 0.913859 0.076969
vt 0.232244 0.440506
vt 0.291247 0.454530
vt 0.685316 0.388716
vt 0.130148 0.436240
vt 0.867108 0.417288
vt 0.563922 0.000091
vt 0.582099 0.007382
vt 0.207942 0.000000
vt 0.293309 0.025246
vt 0.579472 0.365264
vt 0.639569 0.392860
vt 0.477201 0.361119
vt 0.693981 0.150197
vt 0.693822 0.237100
vt 0.668575 0.311882
vn -0.0895 -0.9788 0.1840
vn -0.2165 -0.8235 0.5243
vn -0.3000 -0.8039 0.5136
vn -0.2580 -0.9469 0.1915
vn -0.0948 0.9860 0.1369
vn -0.4011 0.8990 0.1755
vn -0.3419 0.7865 0.5143
vn -0.3126 0.7242 0.6146
vn 0.7819 0.5436 0.3050
vn 0.4462 0.8535 0.2689
vn 0.3356 0.4490 0.8281
vn 0.4037 0.2759 0.8722
vn -0.3868 -0.0774 0.9189
vn -0.6475 0.3283 0.6877
vn -0.8889 0.3657 -0.2757
vn -0.4516 0.8623 -0.2291
vn -0.3514 0.7117 -0.6082
vn -0.5660 0.1468 -0.8112
vn -0.1618 -0.7048 -0.6907
vn -0.0125 -0.8761 -0.4819
vn 0.0794 -0.8041 -0.5891
vn -0.2354 -0.6253 -0.7440
vn 0.0269 -0.9298 -0.3670
vn -0.0387 -0.9987 -0.0319
vn -0.1730 -0.9847 -0.0179
vn -0.0513 -0.9566 -0.2867
vn -0.0174 -0.9821 -0.1876
vn 0.0829 -0.9963 -0.0227
vn -0.0503 -0.9966 -0.0641
vn -0.1403 -0.9470 -0.2890
vn 0.1171 -0.9831 0.1408
vn 0.1031 -0.8625 0.4953
vn -0.0828 -0.8498 0.5205
vn -0.0676 -0.9861 0.1519
vn 0.0876 0.9799 0.1794
vn -0.0494 0.9952 0.0843
vn -0.2286 0.5426 0.8083
vn 0.1391 0.3788 0.9149
vn 0.1562 0.9763 -0.1498
vn 0.0322 0.9845 -0.1723
vn -0.0197 0.9985 -0.0503
vn 0.0896 0.9958 -0.0183
vn -0.0342 0.9920 -0.1217
vn -0.3558 0.9343 0.0198
vn -0.0523 0.9982 -0.0280
vn 0.9229 -0.3582 0.1408
vn 0.9473 0.1883 0.2593
vn 0.6671 -0.0095 0.7449
vn 0.4992 -0.5374 0.6797
vn 0.9213 -0.3393 -0.1900
vn 0.9934 -0.1098 0.0313
vn 0.9857 0.1636 0.0396
vn 0.9779 -0.2078 0.0217
vn 0.9909 0.0972 0.0930
vn 0.6210 0.7834 0.0237
vn 0.5395 0.8359 0.1011
vn 0.9055 0.4140 0.0924
vn -0.2922 -0.2137 0.9321
vn -0.4325 -0.3070 0.8477
vn -0.8950 -0.0447 0.4437
vn -0.7352 -0.5557 0.3882
vn 0.1290 -0.3992 0.9077
vn 0.0984 -0.1170 0.9882
vn 0.0216 -0.1012 0.9946
vn -0.0912 -0.2097 0.9735
vn 0.1607 -0.2273 0.9604
vn -0.0765 -0.4010 0.9128
vn -0.4633 -0.7305 -0.5017
vn -0.9069 -0.2169 -0.3612
vn -0.5166 -0.2553 -0.8173
vn -0.7803 -0.6101 0.1375
vn -0.9957 0.0672 0.0633
vn -0.9962 -0.0387 0.0784
vn -0.6719 -0.7399 -0.0327
vn -0.8011 0.5608 0.2090
vn -0.8296 0.5505 0.0931
vn -0.2745 -0.0540 -0.9601
vn -0.3685 -0.4148 -0.8319
vn 0.4233 0.1641 -0.8910
vn 0.2382 -0.4711 -0.8493
vn -0.1119 -0.5562 -0.8235
vn 0.1661 -0.0005 -0.9861
vn 0.0252 -0.6385 -0.7692
vn -0.0960 -0.8640 -0.4942
vn -0.1454 -0.8893 -0.4334
vn -0.1140 -0.8284 -0.5484
vn 0.2342 -0.7943 -0.5606
vn 0.5142 -0.8515 -0.1029
vn 0.5687 -0.8214 0.0433
vn 0.5166 -0.8484 0.1156
vn 0.3168 -0.8562 0.4081
vn 0.6280 0.6950 -0.3502
vn 0.2757 0.8079 -0.5207
vn 0.1712 0.8186 -0.5482
vn -0.0507 0.6524 -0.7562
vn 0.5047 -0.4454 -0.7395
vn 0.7243 -0.2900 -0.6254
vn 0.8654 0.0094 -0.5009
usemtl Material.002
s 1
f 5/5/2 6/6/3 7/7/4 8/8/5
f 9/9/6 10/10/7 11/11/8 12/12/9
f 13/13/10 14/14/11 15/15/12 16/16/13
f 17/17/14 12/18/9 11/19/8 18/20/15
f 19/21/16 20/22/17 21/23/18 22/24/19
f 23/25/20 24/26/21 25/27/22 26/28/23
f 27/29/24 28/30/25 29/31/26 30/32/27
f 31/33/28 32/34/29 33/35/30 34/36/31
f 35/37/32 36/38/33 37/39/34 38/40/35
f 39/41/36 40/42/37 41/43/38 42/44/39
f 43/45/40 44/46/41 45/47/42 46/48/43
f 47/49/44 20/50/17 48/51/45 49/52/46
f 50/53/47 51/54/48 52/55/49 53/56/50
f 54/57/51 55/58/52 56/59/53 57/60/54
f 58/61/55 59/62/56 60/63/57 61/64/58
f 62/65/59 63/66/60 64/67/61 65/68/62
f 66/69/63 67/70/64 68/71/65 69/72/66
f 70/73/67 42/74/39 41/75/38 71/76/68
f 72/77/69 73/78/70 74/79/71 26/28/23
f 75/80/72 76/81/73 77/82/74 78/83/75
f 79/84/76 10/85/7 48/86/45 80/87/77
f 81/88/78 82/89/79 74/79/71 22/24/19
f 83/90/80 84/91/81 85/92/82 86/93/83
f 87/94/84 88/95/85 89/96/86 90/97/87
f 28/30/25 5/5/2 8/8/5 29/31/26
f 33/35/30 38/40/35 5/5/2 28/30/25
f 38/40/35 37/39/34 6/6/3 5/5/2
f 40/42/37 9/9/6 12/12/9 41/43/38
f 45/47/42 49/52/46 9/9/6 40/42/37
f 49/52/46 48/51/45 10/10/7 9/9/6
f 51/98/48 13/13/10 16/16/13 52/99/49
f 56/59/53 61/100/58 13/101/10 51/54/48
f 61/100/58 60/102/57 14/103/11 13/101/10
f 63/104/60 17/17/14 18/20/15 64/105/61
f 68/106/65 71/107/68 17/108/14 63/109/60
f 71/110/68 41/111/38 12/18/9 17/17/14
f 73/78/70 19/21/16 22/24/19 74/79/71
f 77/82/74 80/87/77 19/112/16 73/113/70
f 80/87/77 48/86/45 20/114/17 19/112/16
f 82/89/79 23/25/20 26/28/23 74/79/71
f 85/92/82 90/97/87 23/25/20 82/89/79
f 90/115/87 89/116/86 24/117/21 23/118/20
f 24/26/21 27/119/24 30/120/27 25/27/22
f 89/96/86 34/121/31 27/119/24 24/26/21
f 34/36/31 33/35/30 28/30/25 27/29/24
f 88/95/85 31/122/28 34/121/31 89/96/86
f 91/123/88 92/124/89 31/33/28 88/125/85
f 92/124/89 93/126/90 32/34/29 31/33/28
f 32/34/29 35/37/32 38/40/35 33/35/30
f 93/126/90 94/127/91 35/37/32 32/34/29
f 94/127/91 95/128/92 36/38/33 35/37/32
f 14/14/11 39/129/36 42/74/39 15/15/12
f 60/130/57 46/48/43 39/41/36 14/131/11
f 46/48/43 45/47/42 40/42/37 39/41/36
f 59/132/56 43/45/40 46/48/43 60/130/57
f 96/133/93 97/134/94 43/45/40 59/132/56
f 97/134/94 98/135/95 44/46/41 43/45/40
f 44/46/41 47/49/44 49/52/46 45/47/42
f 98/135/95 99/136/96 47/49/44 44/46/41
f 99/136/96 21/137/18 20/50/17 47/49/44
f 94/138/91 50/53/47 53/56/50 95/139/92
f 93/140/90 57/60/54 50/53/47 94/138/91
f 57/60/54 56/59/53 51/54/48 50/53/47
f 92/141/89 54/57/51 57/60/54 93/140/90
f 91/142/88 100/143/97 54/57/51 92/141/89
f 100/143/97 101/144/98 55/58/52 54/57/51
f 55/58/52 58/145/55 61/100/58 56/59/53
f 101/144/98 102/146/99 58/145/55 55/58/52
f 102/146/99 96/147/93 59/148/56 58/145/55
f 6/6/3 62/65/59 65/68/62 7/7/4
f 37/39/34 69/149/66 62/65/59 6/6/3
f 69/72/66 68/71/65 63/150/60 62/151/59
f 36/38/33 66/152/63 69/149/66 37/39/34
f 95/128/92 53/153/50 66/152/63 36/38/33
f 53/154/50 52/99/49 67/70/64 66/69/63
f 67/70/64 70/73/67 71/76/68 68/71/65
f 52/99/49 16/16/13 70/73/67 67/70/64
f 16/16/13 15/15/12 42/74/39 70/73/67
f 30/120/27 72/77/69 26/28/23 25/27/22
f 29/31/26 78/155/75 72/156/69 30/32/27
f 78/83/75 77/82/74 73/113/70 72/157/69
f 8/8/5 75/158/72 78/155/75 29/31/26
f 7/7/4 65/68/62 75/158/72 8/8/5
f 65/159/62 64/105/61 76/81/73 75/80/72
f 76/81/73 79/84/76 80/87/77 77/82/74
f 64/105/61 18/20/15 79/84/76 76/81/73
f 18/20/15 11/19/8 10/85/7 79/84/76
f 99/160/96 81/88/78 22/24/19 21/23/18
f 98/161/95 86/93/83 81/88/78 99/160/96
f 86/93/83 85/92/82 82/89/79 81/88/78
f 97/134/94 83/162/80 86/163/83 98/135/95
f 96/147/93 102/146/99 83/164/80 97/165/94
f 102/146/99 101/144/98 84/166/81 83/164/80
f 84/91/81 87/94/84 90/97/87 85/92/82
f 101/167/98 100/168/97 87/94/84 84/91/81
f 100/168/97 91/169/88 88/95/85 87/94/84
